<svg width="50" height="36" viewBox="0 0 50 36" fill="none" xmlns="http://www.w3.org/2000/svg">
<g id="Frame" clip-path="url(#clip0_2248_91)">
<g id="Group">
<path id="Vector" d="M25 0C11.245 0 0 11.2 0 24.9V36H50V24.9C50 11.2 38.8052 0 25 0ZM0.953815 35.05V24.9C0.953815 11.7 11.747 0.95 25 0.95C38.253 0.95 49.0462 11.7 49.0462 24.9V35H0.953815V35.05Z" fill="#2D3185"/>
<path id="Vector_2" d="M41.4659 26.1H28.8153L41.1647 22.8C41.4157 22.75 41.5663 22.45 41.5161 22.2C41.4659 21.95 41.1647 21.8 40.9137 21.85L28.6145 25.2L39.759 18.8C40.01 18.65 40.0602 18.4 39.9096 18.15C39.759 17.9 39.508 17.85 39.257 18L28.0623 24.4L37.249 15.25C37.3494 15.15 37.3996 15.05 37.3996 14.9C37.3996 14.75 37.3494 14.65 37.249 14.55C37.1486 14.45 37.0482 14.4 36.8976 14.4C36.747 14.4 36.6466 14.45 36.5462 14.55L27.4598 23.65L33.986 12.4C34.1366 12.15 34.0362 11.9 33.8354 11.75C33.7349 11.7 33.5843 11.65 33.4839 11.7C33.3835 11.75 33.2831 11.8 33.1827 11.9L26.5562 23.35L30.0201 10.55C30.0703 10.3 29.9197 10.05 29.6687 9.94998C29.4177 9.89998 29.1667 10.05 29.0663 10.3L25.7028 22.8V9.79998C25.7028 9.54998 25.502 9.34998 25.251 9.34998C25 9.34998 24.7992 9.54998 24.7992 9.79998V22.8L21.3855 10.2C21.3353 10.1 21.2851 9.94997 21.1847 9.89997C21.0843 9.84997 20.9337 9.79998 20.8333 9.84998C20.5823 9.89998 20.4317 10.2 20.4819 10.45L23.9458 23.35L17.1687 11.75C17.0181 11.5 16.7671 11.45 16.5161 11.6C16.4157 11.65 16.3153 11.75 16.3153 11.9C16.2651 12 16.3153 12.15 16.3655 12.25L22.992 23.7L13.6546 14.35C13.5542 14.25 13.4538 14.2 13.3032 14.2C13.1526 14.2 13.0522 14.25 12.9518 14.35C12.8514 14.45 12.8012 14.55 12.8012 14.7C12.8012 14.85 12.8514 14.95 12.9518 15.05L22.3394 24.4L10.8936 17.8C10.7932 17.75 10.6426 17.7 10.5422 17.75C10.4418 17.8 10.3414 17.85 10.241 17.95C10.0904 18.2 10.1908 18.45 10.3916 18.6L21.8374 25.2L9.13655 21.8C9.03615 21.75 8.88555 21.8 8.78515 21.85C8.68475 21.9 8.58434 22 8.58434 22.15C8.53414 22.25 8.58434 22.4 8.63455 22.5C8.68475 22.6 8.78515 22.7 8.93575 22.7L21.5864 26.1H8.53414C8.28314 26.1 8.08234 26.3 8.08234 26.55C8.08234 26.8 8.28314 27 8.53414 27H41.4659C41.7169 27 41.9177 26.8 41.9177 26.55C41.9177 26.3 41.7671 26.1 41.4659 26.1Z" fill="#2D3185"/>
</g>
</g>
<defs>
<clipPath id="clip0_2248_91">
<rect width="50" height="36" fill="white"/>
</clipPath>
</defs>
</svg>
