<svg width="150" height="150" viewBox="0 0 150 150" fill="none" xmlns="http://www.w3.org/2000/svg">
<g id="Frame" clip-path="url(#clip0_2248_211)">
<path id="Vector" d="M75 150C116.4 150 150 116.4 150 75C150 33.6 116.4 0 75 0C33.6 0 0 33.6 0 75C0 116.4 33.6 150 75 150Z" fill="#FBD965"/>
<g id="Group">
<path id="Vector_2" d="M78 139C78 139.25 77.85 139.4 77.6 139.4L74.1 139.35C71.65 139.3 70.2 137.6 70.25 134.95L70.4 123.15C70.45 120.5 71.95 118.8 74.35 118.85L77.85 118.9C78.1 118.9 78.25 119.05 78.25 119.3L78 139ZM74.95 121.55H74.3C73.4 121.55 73.25 122.2 73.25 123.8L73.1 134.3C73.1 135.9 73.25 136.55 74.1 136.6H74.75C75 136.6 75.15 136.45 75.15 136.2L75.35 122C75.35 121.75 75.2 121.55 74.95 121.55Z" fill="#171C8F"/>
<path id="Vector_3" d="M67.65 118.65L63.75 137.95C63.7 138.2 63.55 138.3 63.25 138.25L61.25 137.85C61 137.8 60.9 137.6 60.95 137.35L64.85 118.05C64.9 117.8 65.05 117.65 65.35 117.75L67.35 118.15C67.55 118.2 67.7 118.4 67.65 118.65Z" fill="#171C8F"/>
<path id="Vector_4" d="M61.8 117.35L54.4 135.6C54.3 135.85 54.1 135.95 53.85 135.85L50.6 134.55C48.45 133.7 47.6 131.5 48.6 129.05L49.95 125.7C50.5 124.35 51.3 123.55 52.3 123.1C52.45 123 52.6 122.9 52.65 122.7L54.55 114.65C54.65 114.2 54.85 114.15 55.05 114.25L56.9 115C57.15 115.1 57.25 115.25 57.15 115.65L55.35 122.75C55.3 123 55.35 123.2 55.6 123.3L55.8 123.4C56.05 123.5 56.25 123.4 56.35 123.15L59.1 116.3C59.2 116.05 59.4 115.95 59.65 116.05L61.55 116.8C61.8 116.9 61.85 117.15 61.8 117.35ZM54.2 125.65C53.5 125.35 53 125.9 52.4 127.35L51.5 129.5C50.9 130.95 50.95 131.7 51.6 132L52.2 132.25C52.45 132.35 52.65 132.25 52.75 132L55 126.4C55.1 126.15 55 125.95 54.75 125.85L54.2 125.65Z" fill="#171C8F"/>
<path id="Vector_5" d="M41.5 129.5C41.35 129.7 41.15 129.75 40.95 129.6L36.85 126.8C36.65 126.65 36.6 126.45 36.75 126.25L37.75 124.8C37.9 124.6 38.1 124.55 38.3 124.7L40 125.85C40.2 126 40.45 125.95 40.55 125.75L43.6 121.2C43.75 121 43.7 120.75 43.5 120.65L41.8 119.5C41.6 119.35 41.55 119.15 41.7 118.95L42.7 117.5C42.85 117.3 43.05 117.25 43.25 117.4L44.95 118.55C45.15 118.7 45.4 118.65 45.5 118.45L48.7 113.75C48.85 113.55 48.8 113.3 48.6 113.2L46.9 112.05C46.7 111.9 46.65 111.7 46.8 111.5L47.8 110.05C47.95 109.85 48.15 109.8 48.35 109.95L52.45 112.75C52.65 112.9 52.7 113.1 52.55 113.3L41.5 129.5Z" fill="#171C8F"/>
<path id="Vector_6" d="M34.4 119.5C32.5 121.35 30.25 121.45 28.55 119.7C26.85 117.95 27.05 115.7 28.95 113.85L30.55 112.3C30.75 112.15 30.95 112.15 31.15 112.3L32.55 113.8C32.7 114 32.7 114.2 32.55 114.4L31.4 115.5C30.25 116.6 29.9 117.2 30.5 117.85C31.1 118.5 31.7 118.1 32.85 117L40.6 109.5C41.75 108.4 42.1 107.8 41.5 107.15C40.9 106.55 40.3 106.9 39.15 108L38 109.1C37.8 109.25 37.6 109.25 37.4 109.1L36 107.6C35.85 107.4 35.85 107.2 36 107L37.6 105.45C39.5 103.6 41.75 103.5 43.45 105.25C45.15 107 44.95 109.25 43.05 111.1L34.4 119.5Z" fill="#171C8F"/>
<path id="Vector_7" d="M22.8 112C22.6 112.15 22.35 112.1 22.25 111.85L19.05 106.8C18.9 106.6 18.95 106.4 19.2 106.25L20.8 105.25C21 105.1 21.25 105.15 21.35 105.4L22 106.4C22.15 106.6 22.35 106.65 22.55 106.55L36.9 97.4999C37.1 97.3499 37.3 97.3999 37.45 97.6499L38.55 99.3999C38.7 99.5999 38.65 99.8499 38.4 99.9499L24.05 109C23.85 109.15 23.8 109.35 23.9 109.55L24.5 110.5C24.65 110.7 24.6 110.9 24.35 111.05L22.8 112Z" fill="#171C8F"/>
<path id="Vector_8" d="M20.05 99.65C17.55 100.55 15.45 99.8 14.6 97.5C13.75 95.2 14.85 93.25 17.3 92.3L28.65 88.1C31.15 87.2 33.25 87.95 34.1 90.25C34.95 92.55 33.85 94.5 31.4 95.45L20.05 99.65ZM31.55 91.2C31.25 90.4 30.55 90.45 29.05 91L18.95 94.75C17.45 95.3 16.9 95.7 17.2 96.5C17.5 97.3 18.2 97.25 19.7 96.7L29.8 92.95C31.25 92.45 31.85 92.05 31.55 91.2Z" fill="#171C8F"/>
<path id="Vector_9" d="M31.65 84.1998L12.1 86.6998C11.85 86.7498 11.7 86.5998 11.65 86.3498L11.2 82.8998C10.9 80.5998 12.4 78.7998 15 78.4498L18.6 77.9998C20.05 77.7998 21.15 78.0998 22 78.7998C22.15 78.8998 22.3 78.9498 22.55 78.8998L30.5 76.5998C30.95 76.4998 31.1 76.5998 31.1 76.8498L31.35 78.8498C31.4 79.0998 31.3 79.2998 30.9 79.3998L23.8 81.2999C23.55 81.3499 23.4 81.4998 23.45 81.7498L23.5 81.9498C23.55 82.1998 23.7 82.3499 23.95 82.2999L31.3 81.3498C31.55 81.2998 31.7 81.4498 31.75 81.6998L32 83.7498C32.05 83.9998 31.9 84.1998 31.65 84.1998ZM20.7 81.6998C20.6 80.9498 19.9 80.7498 18.3 80.9498L16 81.2498C14.45 81.4498 13.8 81.8499 13.9 82.5499L14 83.1499C14.05 83.3999 14.2 83.5498 14.45 83.4998L20.4 82.7498C20.65 82.6998 20.8 82.5499 20.75 82.2999L20.7 81.6998Z" fill="#171C8F"/>
<path id="Vector_10" d="M30.9 72.6499L24 72.0499C23.9 72.0499 23.75 72.0499 23.65 72.0499L11.1 73.3999C10.85 73.4499 10.7 73.2999 10.7 73.0499L10.9 70.8499C10.9 70.6499 11.1 70.4999 11.35 70.4999L18.75 70.1999C18.9 70.1999 18.9 69.9499 18.75 69.9499L11.5 68.3999C11.25 68.3499 11.1 68.1499 11.1 67.9999L11.3 65.7999C11.3 65.5999 11.5 65.4499 11.75 65.5499L23.9 69.0499C24 69.0999 24.15 69.0999 24.25 69.0999L31.15 69.6999C31.4 69.6999 31.55 69.8999 31.5 70.1499L31.3 72.2999C31.3 72.5499 31.1 72.6999 30.9 72.6499Z" fill="#171C8F"/>
<path id="Vector_11" d="M17.95 46.0998C17.75 45.9998 17.65 45.7498 17.8 45.5498L19.55 42.5498C20.8 40.4498 23 40.0498 25.3 41.3498L35.5 47.2998C37.8 48.6498 38.5 50.7498 37.3 52.8498L35.55 55.8498C35.45 56.0498 35.2 56.0998 35 55.9998L17.95 46.0998ZM34.6 52.0498L34.95 51.4998C35.4 50.7498 34.9 50.2498 33.5 49.4498L24.4 44.1498C23.05 43.3498 22.35 43.1498 21.9 43.8998L21.6 44.4998C21.5 44.6998 21.55 44.8998 21.75 45.0498L34.05 52.1998C34.25 52.2998 34.45 52.2998 34.6 52.0498Z" fill="#171C8F"/>
<path id="Vector_12" d="M40.75 47.15L25.9 34.2C25.7 34.05 25.7 33.85 25.85 33.6L27.2 32.05C27.35 31.85 27.6 31.85 27.8 32L42.65 44.95C42.85 45.1 42.85 45.3 42.7 45.55L41.35 47.1C41.2 47.25 40.95 47.3 40.75 47.15Z" fill="#171C8F"/>
<path id="Vector_13" d="M44.75 42.6498L32.5 27.2498C32.35 27.0498 32.35 26.8498 32.55 26.6498L35.3 24.4498C37.1 22.9998 39.4 23.3498 41.05 25.3998L43.3 28.2498C44.2 29.3998 44.5 30.4498 44.4 31.5498C44.4 31.6998 44.4 31.8998 44.6 32.0498L50.65 37.6498C50.95 37.9498 50.95 38.1498 50.75 38.2998L49.2 39.5498C49 39.6998 48.8 39.7498 48.5 39.4498L43.25 34.4498C43.1 34.2498 42.85 34.2498 42.65 34.3998L42.5 34.4998C42.3 34.6498 42.3 34.8998 42.45 35.0998L47 40.8498C47.15 41.0498 47.15 41.2498 46.95 41.4498L45.35 42.7498C45.15 42.8498 44.95 42.8498 44.75 42.6498ZM41.3 31.9998C41.9 31.5498 41.7 30.7998 40.7 29.5998L39.25 27.7998C38.25 26.5498 37.6 26.1998 37 26.6498L36.5 27.0498C36.3 27.1998 36.3 27.4498 36.45 27.6498L40.2 32.3498C40.35 32.5498 40.6 32.5498 40.8 32.3998L41.3 31.9998Z" fill="#171C8F"/>
<path id="Vector_14" d="M44.15 19.05C44.05 18.85 44.1 18.6 44.35 18.5L48.8 16.3C49 16.2 49.25 16.25 49.35 16.5L50.15 18.05C50.25 18.25 50.2 18.5 49.95 18.6L48.05 19.5C47.85 19.6 47.75 19.85 47.85 20.05L50.3 24.95C50.4 25.15 50.65 25.25 50.85 25.15L52.7 24.25C52.9 24.15 53.15 24.2 53.25 24.45L54.05 26C54.15 26.2 54.1 26.45 53.85 26.55L52 27.45C51.8 27.55 51.7 27.8 51.8 28L54.35 33.1C54.45 33.3 54.7 33.4 54.9 33.3L56.75 32.4C56.95 32.3 57.2 32.35 57.3 32.6L58.1 34.15C58.2 34.35 58.15 34.6 57.9 34.7L53.45 36.9C53.25 37 53 36.95 52.9 36.7L44.15 19.05Z" fill="#171C8F"/>
<path id="Vector_15" d="M56.4 17.7998C55.75 15.2498 56.75 13.1998 59.1 12.5998C61.45 11.9998 63.3 13.2498 63.95 15.8498L64.5 17.9998C64.55 18.2498 64.45 18.4498 64.2 18.4998L62.2 18.9998C61.95 19.0498 61.75 18.9498 61.7 18.6998L61.3 17.1498C60.9 15.5998 60.55 14.9998 59.75 15.1998C58.9 15.3998 58.9 16.0998 59.3 17.6498L61.95 28.0998C62.35 29.6498 62.65 30.2498 63.5 30.0498C64.3 29.8498 64.35 29.1498 63.95 27.5998L63.55 26.0498C63.5 25.7998 63.6 25.5998 63.85 25.5498L65.85 25.0498C66.1 24.9998 66.3 25.0998 66.35 25.3498L66.9 27.4998C67.55 30.0498 66.55 32.0998 64.2 32.6998C61.85 33.2998 60 32.0498 59.35 29.4498L56.4 17.7998Z" fill="#171C8F"/>
<path id="Vector_16" d="M68.65 11.3999C68.65 11.1499 68.8 10.9999 69.05 10.9499L75.05 10.6499C75.3 10.6499 75.45 10.7499 75.5 11.0499L75.6 12.9499C75.6 13.1999 75.45 13.3499 75.2 13.3999L74 13.4499C73.75 13.4499 73.6 13.6499 73.6 13.8999L74.4 30.8499C74.4 31.0999 74.3 31.2499 74 31.2999L71.95 31.3999C71.7 31.3999 71.55 31.2499 71.5 30.9999L70.7 14.0499C70.7 13.7999 70.5 13.6499 70.25 13.6499L69.15 13.6999C68.9 13.6999 68.75 13.5999 68.7 13.2999L68.65 11.3999Z" fill="#171C8F"/>
<path id="Vector_17" d="M80.65 15.0998C81.05 12.4998 82.8 11.0498 85.2 11.3998C87.6 11.7998 88.8 13.6998 88.4 16.2998L86.5 28.2998C86.1 30.8998 84.35 32.3498 81.95 31.9998C79.55 31.5998 78.35 29.6998 78.75 27.0998L80.65 15.0998ZM82.35 29.2498C83.2 29.3998 83.5 28.7498 83.75 27.1498L85.45 16.4998C85.7 14.9498 85.65 14.2498 84.8 14.0998C83.95 13.9498 83.65 14.5998 83.4 16.1998L81.7 26.8498C81.45 28.3998 81.5 29.0998 82.35 29.2498Z" fill="#171C8F"/>
<path id="Vector_18" d="M88.45 32.8L95.9 14.55C96 14.3 96.2 14.2 96.45 14.35L99.7 15.7C101.85 16.55 102.7 18.75 101.65 21.2L100.3 24.55C99.75 25.9 98.95 26.7 97.95 27.15C97.8 27.25 97.65 27.35 97.6 27.55L95.65 35.6C95.55 36.05 95.35 36.1 95.15 36L93.3 35.25C93.05 35.15 92.95 35 93.05 34.6L94.9 27.5C94.95 27.25 94.9 27.05 94.7 26.95L94.5 26.85C94.25 26.75 94.05 26.85 93.95 27.05L91.15 33.9C91.05 34.15 90.85 34.25 90.6 34.1L88.7 33.3C88.45 33.25 88.35 33 88.45 32.8ZM96.05 24.55C96.75 24.85 97.25 24.3 97.85 22.85L98.7 20.7C99.3 19.25 99.3 18.5 98.6 18.2L98 17.95C97.75 17.85 97.55 17.95 97.45 18.15L95.15 23.7C95.05 23.95 95.15 24.15 95.35 24.25L96.05 24.55Z" fill="#171C8F"/>
<path id="Vector_19" d="M98.85 37.8L102.8 32.1C102.85 32 102.95 31.9 103 31.8L108 20.2C108.1 19.95 108.3 19.9 108.5 20.05L110.3 21.3C110.45 21.4 110.5 21.65 110.4 21.85L107 28.4C106.95 28.55 107.15 28.65 107.25 28.55L112.2 23.05C112.35 22.85 112.6 22.8 112.75 22.95L114.55 24.2C114.75 24.3 114.75 24.55 114.55 24.7L105.5 33.5C105.4 33.55 105.35 33.7 105.25 33.8L101.3 39.5C101.15 39.7 100.95 39.75 100.75 39.6L98.95 38.35C98.75 38.25 98.7 38 98.85 37.8Z" fill="#171C8F"/>
<path id="Vector_20" d="M128.35 39.6499C128.55 39.5499 128.75 39.5499 128.9 39.7999L130.65 42.8499C131.9 44.9499 131.15 47.0999 128.85 48.3999L118.65 54.3499C116.35 55.6999 114.15 55.2499 112.9 53.1499L111.15 50.0999C111.05 49.8999 111.1 49.6499 111.3 49.5499L128.35 39.6499ZM114.95 51.1999L115.3 51.7499C115.75 52.4999 116.4 52.2999 117.8 51.4999L126.9 46.1999C128.25 45.3999 128.8 44.8999 128.35 44.1499L128 43.5999C127.9 43.3999 127.65 43.3499 127.45 43.4999L115.15 50.6499C114.9 50.7999 114.85 50.9999 114.95 51.1999Z" fill="#171C8F"/>
<path id="Vector_21" d="M116.25 58.9999L134.85 52.4499C135.1 52.3499 135.3 52.4499 135.35 52.6999L136.05 54.6499C136.15 54.8999 136.05 55.0999 135.8 55.1499L117.2 61.6999C116.95 61.7999 116.75 61.6999 116.7 61.4499L116 59.4999C115.9 59.2999 116 59.0999 116.25 58.9999Z" fill="#171C8F"/>
<path id="Vector_22" d="M118.1 64.6499L137.55 61.5999C137.8 61.5499 138 61.6499 138 61.9499L138.55 65.3999C138.9 67.6499 137.5 69.5499 134.85 69.9499L131.3 70.4999C129.85 70.6999 128.75 70.4499 127.85 69.7999C127.7 69.6999 127.55 69.6499 127.3 69.6999L119.4 72.1999C119 72.2999 118.8 72.1999 118.8 71.9499L118.5 69.9999C118.45 69.7499 118.55 69.5499 118.95 69.4499L126 67.3499C126.25 67.2999 126.4 67.0999 126.35 66.8999L126.3 66.6999C126.25 66.4499 126.05 66.2999 125.85 66.3499L118.55 67.4999C118.3 67.5499 118.1 67.4499 118.1 67.1499L117.8 65.0999C117.75 64.8999 117.9 64.6999 118.1 64.6499ZM129.15 66.8999C129.25 67.6499 130 67.7999 131.55 67.5999L133.8 67.2499C135.35 66.9999 136 66.5999 135.9 65.8499L135.8 65.2499C135.75 64.9999 135.55 64.8499 135.35 64.8999L129.4 65.8499C129.15 65.8999 129 66.0999 129.05 66.2999L129.15 66.8999Z" fill="#171C8F"/>
<path id="Vector_23" d="M138.95 75.8C139.2 75.8 139.35 75.95 139.35 76.25L139.1 81.1999C139.1 81.4499 138.9 81.5999 138.65 81.5999L136.9 81.4999C136.65 81.4999 136.5 81.2999 136.5 81.05L136.6 78.9499C136.6 78.6999 136.45 78.5499 136.2 78.4999L130.75 78.1999C130.5 78.1999 130.35 78.3499 130.3 78.5999L130.2 80.6999C130.2 80.9499 130 81.0999 129.75 81.0999L128 80.9999C127.75 80.9999 127.6 80.8 127.6 80.55L127.7 78.4499C127.7 78.1999 127.55 78.05 127.3 78L121.6 77.6999C121.35 77.6999 121.2 77.8499 121.15 78.0999L121.05 80.1999C121.05 80.4499 120.85 80.5999 120.6 80.5999L119 80.4999C118.75 80.4999 118.6 80.3 118.6 80.05L118.85 75.1C118.85 74.85 119.05 74.7 119.3 74.7L138.95 75.8Z" fill="#171C8F"/>
<path id="Vector_24" d="M134 87.1C136.55 87.8 137.8 89.65 137.2 92C136.55 94.35 134.55 95.35 132 94.65L129.85 94.05C129.6 94 129.5 93.8 129.55 93.55L130.1 91.55C130.15 91.3 130.35 91.2 130.6 91.25L132.15 91.65C133.7 92.05 134.4 92.05 134.6 91.25C134.85 90.4 134.2 90.05 132.7 89.65L122.3 86.85C120.75 86.45 120.05 86.4 119.85 87.25C119.65 88.05 120.25 88.45 121.75 88.85L123.3 89.25C123.55 89.3 123.65 89.5 123.6 89.75L123.05 91.75C123 92 122.8 92.1 122.55 92.05L120.4 91.45C117.85 90.75 116.6 88.9 117.2 86.55C117.85 84.2 119.85 83.2 122.4 83.9L134 87.1Z" fill="#171C8F"/>
<path id="Vector_25" d="M133.55 100.9C133.75 101 133.85 101.25 133.75 101.45L131.05 106.8C130.95 107 130.75 107.1 130.5 107L128.8 106.15C128.6 106.05 128.5 105.8 128.6 105.6L129.15 104.55C129.25 104.35 129.2 104.1 128.95 104L113.8 96.2999C113.6 96.1999 113.5 95.9999 113.6 95.7499L114.55 93.8999C114.65 93.6999 114.9 93.5999 115.1 93.6999L130.25 101.4C130.45 101.5 130.7 101.45 130.8 101.2L131.3 100.2C131.4 99.9999 131.6 99.8999 131.85 99.9999L133.55 100.9Z" fill="#171C8F"/>
<path id="Vector_26" d="M124.35 109.55C126.4 111.2 126.8 113.4 125.3 115.3C123.8 117.2 121.55 117.3 119.45 115.65L110 108.1C107.95 106.45 107.55 104.25 109.05 102.35C110.55 100.45 112.8 100.35 114.9 102L124.35 109.55ZM111.2 104.05C110.65 104.75 111.1 105.3 112.3 106.3L120.7 113.05C121.95 114.05 122.55 114.35 123.1 113.65C123.65 112.95 123.2 112.4 122 111.4L113.6 104.65C112.4 103.65 111.75 103.35 111.2 104.05Z" fill="#171C8F"/>
<path id="Vector_27" d="M105.2 107.55L117.4 123C117.55 123.2 117.55 123.4 117.35 123.6L114.6 125.75C112.8 127.15 110.5 126.85 108.85 124.75L106.6 121.9C105.7 120.75 105.4 119.7 105.5 118.6C105.5 118.45 105.5 118.25 105.3 118.1L99.25 112.45C98.95 112.15 98.95 111.95 99.15 111.8L100.7 110.55C100.9 110.4 101.1 110.35 101.4 110.65L106.7 115.75C106.85 115.95 107.1 115.95 107.3 115.8L107.45 115.65C107.65 115.5 107.65 115.25 107.5 115.05L102.9 109.25C102.75 109.05 102.75 108.85 102.95 108.65L104.55 107.4C104.8 107.3 105.05 107.35 105.2 107.55ZM108.65 118.25C108.05 118.7 108.25 119.45 109.25 120.7L110.65 122.5C111.65 123.75 112.3 124.1 112.85 123.65L113.35 123.25C113.55 123.1 113.55 122.85 113.4 122.65L109.65 117.95C109.5 117.75 109.25 117.75 109.05 117.9L108.65 118.25Z" fill="#171C8F"/>
<path id="Vector_28" d="M95.7 114.15L98.75 120.4C98.8 120.5 98.85 120.6 98.95 120.7L106.55 130.8C106.7 131 106.65 131.2 106.45 131.3L104.5 132.25C104.35 132.35 104.1 132.25 104 132.05L99.95 125.85C99.85 125.75 99.65 125.85 99.7 125.95L102.05 132.95C102.15 133.2 102.05 133.4 101.9 133.5L99.95 134.45C99.75 134.55 99.55 134.45 99.5 134.2L96.3 122C96.3 121.9 96.2 121.75 96.15 121.65L93.1 115.4C93 115.2 93.05 114.95 93.3 114.85L95.25 113.9C95.35 113.85 95.55 113.95 95.7 114.15Z" fill="#171C8F"/>
</g>
<path id="Vector_29" d="M79.5 66.05L77.3 68.1L83.6 74.55H60.8V77.55H83.6L77.3 84.05L79.5 86.1L89.2 76.05L79.5 66.05Z" fill="#171C8F"/>
</g>
<defs>
<clipPath id="clip0_2248_211">
<rect width="150" height="150" fill="white"/>
</clipPath>
</defs>
</svg>
