<svg width="98" height="139" viewBox="0 0 98 139" fill="none" xmlns="http://www.w3.org/2000/svg">
<g id="Frame" clip-path="url(#clip0_2248_33)">
<g id="Group">
<path id="Vector" d="M49.0251 0C22.001 0 0 21.9632 0 48.9408V139.05H98V48.9408C98 21.9632 76.0492 0 49.0251 0ZM1.8083 137.195V48.9408C1.8083 22.9661 23.0056 1.80519 49.0251 1.80519C75.0446 1.80519 96.2419 22.9661 96.2419 48.9408V137.245H1.8083V137.195Z" fill="white"/>
<path id="Vector_2" d="M81.3234 51.2977H56.2583L80.6202 44.7789C81.1225 44.6285 81.3736 44.1772 81.2732 43.6758C81.1225 43.1743 80.6704 42.9236 80.1681 43.0239L55.8062 49.5426L77.9077 36.806C78.1087 36.7057 78.2593 36.5051 78.3096 36.2544C78.3598 36.0037 78.3598 35.8031 78.2091 35.5524C78.0584 35.3017 77.9077 35.2014 77.6566 35.1512C77.4054 35.1011 77.2045 35.1011 76.9533 35.2515L54.8016 48.0383L72.9851 29.8861C73.1358 29.7356 73.2363 29.4849 73.2363 29.2342C73.2363 28.9835 73.1358 28.7829 72.9851 28.5823C72.8344 28.4319 72.5833 28.3316 72.3321 28.3316C72.081 28.3316 71.88 28.4319 71.6791 28.5823L53.5961 46.6343L66.5054 24.3201C66.7565 23.8688 66.6058 23.3172 66.1537 23.0664C65.9528 22.9662 65.7017 22.916 65.4505 22.9662C65.1994 23.0163 64.9984 23.1667 64.898 23.3673L51.7878 45.9824L58.6191 20.5592C58.7698 20.0578 58.4685 19.6065 57.9662 19.4561C57.4638 19.3056 57.0118 19.6065 56.8611 20.1079L50.1804 44.9294V19.2053C50.1804 18.7039 49.7786 18.3027 49.2762 18.3027C48.7739 18.3027 48.3721 18.7039 48.3721 19.2053V44.9795L41.7919 20.0076C41.7416 19.7569 41.591 19.5563 41.39 19.4561C41.1891 19.3558 40.938 19.3056 40.6868 19.3558C40.1845 19.5062 39.9333 19.9575 40.0338 20.4589L46.9154 46.0827L33.6545 23.0664C33.4034 22.6151 32.8508 22.4647 32.3987 22.7154C32.1978 22.8157 32.0471 23.0163 31.9969 23.267C31.9467 23.5177 31.9467 23.7183 32.0974 23.969L45.1573 46.6343L26.6725 28.1812C26.3208 27.8302 25.7683 27.8302 25.4167 28.1812C25.2158 28.3316 25.1153 28.5823 25.1153 28.833C25.1153 29.0838 25.2158 29.2843 25.3665 29.4849L44.002 48.0885L21.2475 34.9506C20.7955 34.6999 20.2429 34.8504 19.9918 35.3017C19.7406 35.753 19.8913 36.3045 20.3434 36.5553L42.9974 49.6429L17.8821 42.8233C17.6309 42.7732 17.43 42.7732 17.1789 42.9236C16.9779 43.0239 16.8272 43.2245 16.777 43.4752C16.6263 43.9766 16.9277 44.4279 17.43 44.5784L42.5956 51.2977H16.6766C16.1742 51.2977 15.7724 51.6988 15.7724 52.2003C15.7724 52.7017 16.1742 53.1029 16.6766 53.1029H81.2732C81.7755 53.1029 82.1773 52.7017 82.1773 52.2003C82.2276 51.6988 81.8257 51.2977 81.3234 51.2977Z" fill="white"/>
<path id="Vector_3" d="M31.8462 73.2106C31.7457 72.7593 31.5951 72.2579 31.3439 71.8066C31.0927 71.3553 30.7914 70.904 30.3393 70.553C29.8872 70.202 29.3347 69.9011 28.6817 69.7005C28.0287 69.4999 27.225 69.3997 26.2706 69.3997C25.3162 69.3997 24.5125 69.4999 23.8595 69.7005C23.2065 69.9011 22.654 70.202 22.2019 70.6031C21.7498 70.9541 21.3982 71.4054 21.1471 71.8567C20.8959 72.308 20.7452 72.7593 20.6448 73.2608C20.5443 73.7121 20.4941 74.2135 20.4438 74.6648C20.4438 75.1161 20.3936 75.4671 20.3936 75.8181V115.532C20.3936 116.084 20.4438 116.686 20.4941 117.338C20.5443 118.09 20.7955 118.792 21.1471 119.444C21.4987 120.146 22.1015 120.747 22.9051 121.199C23.7088 121.65 24.8139 121.901 26.2706 121.901C27.6771 121.901 28.7821 121.65 29.5858 121.199C30.3895 120.747 30.9421 120.146 31.3439 119.444C31.6955 118.792 31.8964 118.04 31.9467 117.338C31.9969 116.636 32.0471 116.034 32.0471 115.532V95.926H25.3665V98.2828H29.5356V115.432C29.5356 115.833 29.5356 116.335 29.4854 116.836C29.4854 117.287 29.3347 117.739 29.1338 118.19C28.9328 118.591 28.6314 118.942 28.2296 119.193C27.8278 119.494 27.1748 119.594 26.3208 119.594H26.2204C25.3665 119.594 24.7135 119.444 24.2614 119.193C23.8093 118.892 23.5079 118.591 23.307 118.19C23.1061 117.789 23.0056 117.338 22.9554 116.836C22.9052 116.335 22.9051 115.833 22.9051 115.432V75.9686C22.9051 75.5674 22.9052 75.1161 22.9554 74.6147C23.0056 74.1634 23.1061 73.7121 23.307 73.2608C23.5079 72.8596 23.8093 72.5086 24.2614 72.2579C24.7135 72.0072 25.3665 71.8567 26.2204 71.8567H26.2706C27.1245 71.8567 27.7775 72.0072 28.2296 72.2579C28.6817 72.5588 28.9831 72.8596 29.184 73.2608C29.3849 73.6619 29.4854 74.1132 29.5356 74.6147C29.5858 75.1161 29.5858 75.5674 29.5858 76.0187V81.7853H32.0974V75.9184C32.0974 75.5674 32.0974 75.1663 32.0471 74.7651C32.0471 74.1634 31.9467 73.7121 31.8462 73.2106Z" fill="white"/>
<path id="Vector_4" d="M55.2537 73.2608C55.1533 72.7593 55.0026 72.308 54.7514 71.8567C54.5003 71.4054 54.1989 70.9541 53.7468 70.6031C53.2947 70.2521 52.7422 69.9512 52.0892 69.7005C51.4362 69.4999 50.6325 69.3997 49.6781 69.3997C48.7238 69.3997 47.9201 69.4999 47.2671 69.7005C46.6141 69.9011 46.0615 70.202 45.6095 70.6031C45.1574 70.9541 44.8058 71.4054 44.5546 71.8567C44.3035 72.308 44.1528 72.7593 44.0523 73.2608C43.9518 73.7121 43.9016 74.2135 43.8514 74.6648C43.8514 75.066 43.8011 75.4671 43.8011 75.8181V115.532C43.8011 115.883 43.8012 116.285 43.8514 116.686C43.8514 117.137 43.9518 117.588 44.0523 118.04C44.1528 118.491 44.3537 118.992 44.5546 119.444C44.8058 119.945 45.1574 120.346 45.6095 120.697C46.0615 121.048 46.6141 121.349 47.2671 121.6C47.9201 121.8 48.7238 121.951 49.6781 121.951C51.0846 121.951 52.1897 121.7 52.9934 121.249C53.797 120.798 54.3496 120.196 54.7514 119.494C55.103 118.842 55.304 118.09 55.3542 117.388C55.4044 116.686 55.4547 116.084 55.4547 115.583V109.716H52.9431V115.482C52.9431 115.883 52.9431 116.385 52.8929 116.886C52.8929 117.338 52.7422 117.789 52.5413 118.24C52.3404 118.641 52.039 118.992 51.6371 119.243C51.1851 119.544 50.5321 119.644 49.6781 119.644C48.8242 119.644 48.1712 119.494 47.7191 119.243C47.2671 118.942 46.9657 118.591 46.7648 118.19C46.5638 117.789 46.4131 117.338 46.4131 116.836C46.3629 116.335 46.3629 115.883 46.3629 115.432V75.9686C46.3629 75.5674 46.3629 75.1161 46.4131 74.6147C46.4634 74.1634 46.5638 73.7121 46.7648 73.2608C46.9657 72.8596 47.2671 72.5086 47.7191 72.2077C48.1712 71.9069 48.8242 71.7564 49.6279 71.7564H49.6781C50.5321 71.7564 51.1851 71.9069 51.6371 72.1576C52.0892 72.4585 52.3906 72.7593 52.5413 73.1605C52.7422 73.5616 52.8427 74.0129 52.8929 74.5144C52.9431 75.0158 52.9431 75.4671 52.9431 75.9184V81.685H55.4547V75.8181C55.4547 75.4671 55.4547 75.066 55.4044 74.6648C55.4044 74.2135 55.3542 73.7622 55.2537 73.2608Z" fill="white"/>
<path id="Vector_5" d="M77.3552 73.2608C77.2547 72.8095 77.104 72.308 76.8529 71.8567C76.6017 71.4054 76.3003 70.9541 75.8483 70.6031C75.3962 70.2521 74.8436 69.9512 74.1906 69.7005C73.5376 69.4999 72.734 69.3997 71.7796 69.3997C70.8252 69.3997 70.0215 69.4999 69.3685 69.7005C68.7155 69.9011 68.163 70.202 67.7109 70.6031C67.2588 70.9541 66.9072 71.4054 66.656 71.8567C66.4049 72.308 66.2542 72.7593 66.1537 73.2608C66.0533 73.7121 66.0031 74.2135 65.9528 74.6648C65.9528 75.1161 65.9026 75.4671 65.9026 75.8181V115.532C65.9026 115.883 65.9026 116.234 65.9528 116.686C65.9528 117.137 66.0533 117.588 66.1537 118.04C66.2542 118.491 66.4551 118.992 66.656 119.444C66.9072 119.895 67.2588 120.346 67.7109 120.697C68.163 121.048 68.7155 121.349 69.3685 121.6C70.0215 121.8 70.8252 121.951 71.7796 121.951C73.186 121.951 74.2911 121.7 75.0948 121.249C75.8985 120.798 76.451 120.196 76.8529 119.494C77.2045 118.842 77.4054 118.09 77.4556 117.388C77.5059 116.686 77.5561 116.084 77.5561 115.583V109.716H75.0446V115.482C75.0446 115.883 75.0446 116.385 74.9943 116.886C74.9943 117.338 74.8436 117.789 74.6427 118.24C74.4418 118.641 74.1404 118.992 73.7386 119.243C73.2865 119.544 72.6335 119.644 71.7796 119.644C70.9257 119.644 70.2727 119.494 69.8206 119.243C69.3685 118.942 69.0671 118.591 68.8662 118.19C68.6653 117.789 68.5146 117.338 68.5146 116.836C68.4643 116.335 68.4644 115.833 68.4644 115.432V75.9686C68.4644 75.5674 68.4643 75.1161 68.5146 74.6147C68.5648 74.1634 68.6653 73.7121 68.8662 73.2608C69.0671 72.8596 69.3685 72.5086 69.8206 72.2077C70.2727 71.9069 70.9257 71.7564 71.7293 71.7564H71.7796C72.6335 71.7564 73.2865 71.9069 73.7386 72.1576C74.1906 72.4585 74.492 72.7593 74.6427 73.1605C74.8436 73.5616 74.9441 74.0129 74.9943 74.5144C75.0446 75.0158 75.0446 75.4671 75.0446 75.9184V81.685H77.5561V75.8181C77.5561 75.4671 77.5561 75.1161 77.5059 74.6648C77.5059 74.2135 77.4556 73.7121 77.3552 73.2608Z" fill="white"/>
</g>
</g>
<defs>
<clipPath id="clip0_2248_33">
<rect width="98" height="139" fill="white"/>
</clipPath>
</defs>
</svg>
