<svg width="118" height="25" viewBox="0 0 118 25" fill="none" xmlns="http://www.w3.org/2000/svg">
<g id="Frame">
<path id="Vector" d="M0 15C3.625 15 3.625 18 7.25 18C10.875 18 10.875 15 14.5 15C18.125 15 18.125 18 21.75 18C25.375 18 25.375 15 29 15" stroke="white" stroke-width="1.75"/>
<path id="Vector_2" d="M29 15C32.375 15 32.375 18 35.75 18C39.125 18 39.125 15 42.5 15C45.875 15 45.875 18 49.25 18C52.625 18 52.625 15 56 15" stroke="white" stroke-width="1.75"/>
<path id="Vector_3" d="M56 15C59.625 15 59.625 18 63.25 18C66.875 18 66.875 15 70.5 15C74.125 15 74.125 18 77.75 18C81.375 18 81.375 15 85 15" stroke="white" stroke-width="1.75"/>
<path id="Vector_4" d="M85 15C88.375 15 88.375 18 91.75 18C95.125 18 95.125 15 98.5 15C101.875 15 101.875 18 105.25 18C108.625 18 108.625 15 112 15" stroke="white" stroke-width="1.75"/>
</g>
</svg>
