<svg width="173" height="252" viewBox="0 0 173 252" fill="none" xmlns="http://www.w3.org/2000/svg">
<g id="Frame" clip-path="url(#clip0_2248_114)">
<path id="Vector" d="M19.8745 142.531C16.3979 158.558 0.828354 165.413 -7.23354 178.315C-18.9737 197.165 -15.8497 215.863 -11.5668 235.066C-10.0552 241.819 -5.11729 246.557 1.88647 248.976C33.5798 260.064 65.4242 238.946 65.8777 205.531C66.1296 186.48 64.7188 167.429 63.963 145.303C72.176 153.367 78.3736 160.02 85.1254 165.967C104.927 183.406 132.59 187.69 152.442 176.702C170.581 166.622 176.225 152.51 171.337 129.326C168.364 115.164 158.992 109.368 137.578 107.906C124.729 107.05 111.83 105.941 99.0322 104.681C95.8074 104.378 91.7261 104.076 90.416 100.548C88.9548 96.6673 92.6835 94.5 95.102 92.4336C102.408 86.3352 110.218 80.7408 117.373 74.4408C134.253 59.4216 132.237 24.2928 113.695 6.80405C100.846 -5.34235 71.6722 -0.755954 57.715 15.8256C44.7152 31.248 41.1378 49.6944 40.7347 69.2496C40.5835 75.6504 44.4633 84.5713 37.3084 87.696C31.01 90.4176 25.4675 82.9585 19.9249 79.3801C12.4173 74.4912 5.46394 68.6449 -2.29563 64.1592C-23.5589 51.8616 -47.9964 61.4881 -62.2055 87.2425C-74.1472 109.066 -67.4961 128.066 -44.1671 140.112C-30.5626 147.118 -16.4543 148.579 -1.6406 146.059C5.5647 144.85 12.77 143.791 19.9753 142.682C20.4792 142.481 20.9831 142.33 21.4869 142.128C20.9831 142.279 20.4288 142.43 19.8745 142.531Z" fill="#FBDB65"/>
</g>
<defs>
<clipPath id="clip0_2248_114">
<rect width="241" height="252" fill="white" transform="translate(-68)"/>
</clipPath>
</defs>
</svg>
