<svg width="222" height="178" viewBox="0 0 222 178" fill="none" xmlns="http://www.w3.org/2000/svg">
<path id="Vector" d="M199.36 0C204.174 0.817217 204.523 4.00826 205.416 6.45991C219.626 45.4917 231.195 85.3019 234.612 126.785C240.28 195.081 169.543 243.881 115.617 228.042C80.404 217.691 56.4497 192.396 37.9308 161.77C20.2272 132.35 13.2001 98.6887 1.70828 66.8172C0.660036 63.8986 -1.43645 60.3573 1.47533 57.6722C4.42594 54.987 7.76478 57.4776 10.4048 58.9564C28.1084 69.0743 45.7732 79.309 63.3215 89.6993C74.1922 96.1203 75.8228 95.7311 79.4722 83.4729C84.8687 65.1828 90.0711 46.8149 95.2734 28.4859C97.7193 19.8856 100.825 18.0955 108.202 25.1392C122.994 39.2264 138.678 52.3797 154.014 65.8833C167.097 77.4021 168.184 76.8184 174.28 60.98C182.2 40.355 191.052 20.1191 199.36 0Z" fill="#7BA3D6"/>
</svg>
